<svg xmlns="http://www.w3.org/2000/svg" width="18.688" height="23" viewBox="0 0 18.688 23">
  <path id="Path_10" data-name="Path 10" d="M20.188,17.25H18.75V8.625a7.161,7.161,0,0,0-6.482-7.116c0-.026.013-.046.013-.072a1.438,1.438,0,0,0-2.875,0c0,.026.013.046.014.072A7.161,7.161,0,0,0,2.938,8.625V17.25H1.5v1.438H7.322a3.682,3.682,0,0,0-.072.719,3.594,3.594,0,1,0,7.114-.719h5.823Zm-9.344,4.313a2.156,2.156,0,0,1-2.156-2.156,2.093,2.093,0,0,1,.145-.719h4.021a2.094,2.094,0,0,1,.147.719A2.156,2.156,0,0,1,10.844,21.563Zm6.469-7.187V17.25H4.375V8.625a5.75,5.75,0,0,1,5.75-5.75h1.438a5.751,5.751,0,0,1,5.75,5.75Z" transform="translate(-1.5)" fill="#bec4cd"/>
</svg>
