<svg xmlns="http://www.w3.org/2000/svg" width="20" height="15.67" viewBox="0 0 20 15.67">
  <g id="arrow_left" data-name="arrow left" transform="translate(-1 -2.999)">
    <path id="Path_12" data-name="Path 12" d="M20.286,10.12H3.536l6.546-5.934A.7.7,0,1,0,9.1,3.2s-7.8,7.081-7.811,7.09-.059.01-.08.033-.02.069-.041.1a.671.671,0,0,0-.15.361c0,.014-.011.026-.01.04s0,.006,0,.01,0,.007,0,.011,0,.016,0,.024a.7.7,0,0,0,.183.44c.009.01,0,.026.014.034s.026.006.036.014.026.006.034.014L9.1,18.466a.7.7,0,1,0,.986-.983L3.536,11.545h16.75a.712.712,0,1,0,0-1.424Z" fill="#fff"/>
  </g>
</svg>
