<svg xmlns="http://www.w3.org/2000/svg" width="12" height="11.157" viewBox="0 0 12 11.157">
  <g id="Like" transform="translate(0 -1.826)">
    <path id="Path_14" data-name="Path 14" d="M11.98,5.153A3.4,3.4,0,0,0,8.733,1.826,3.228,3.228,0,0,0,5.967,3.42a3.111,3.111,0,0,0-2.7-1.594A3.4,3.4,0,0,0,.02,5.153a3.43,3.43,0,0,0,.1,1.264A5.423,5.423,0,0,0,1.784,9.189l4.181,3.794L10.217,9.19a5.423,5.423,0,0,0,1.661-2.773A3.438,3.438,0,0,0,11.98,5.153Zm-.552,1.158A4.959,4.959,0,0,1,9.908,8.846L5.967,12.362,2.094,8.847A4.963,4.963,0,0,1,.572,6.311a3,3,0,0,1-.1-1.085l0-.023A2.952,2.952,0,0,1,3.268,2.288,2.705,2.705,0,0,1,5.753,4.022l.213.5.213-.5A2.788,2.788,0,0,1,8.733,2.288a2.961,2.961,0,0,1,2.792,2.937A2.994,2.994,0,0,1,11.429,6.311Z" transform="translate(0)" fill="#333"/>
  </g>
</svg>
