<svg xmlns="http://www.w3.org/2000/svg" width="23" height="23" viewBox="0 0 23 23">
  <path id="Path_9" data-name="Path 9" d="M11.5,0A11.5,11.5,0,1,0,23,11.5,11.5,11.5,0,0,0,11.5,0Zm.187,21.544h-.379A9.962,9.962,0,0,1,5.29,19.362a2.225,2.225,0,0,1,.8-.946c.677-.405,3.3-1.57,3.894-1.831l.073-.773V14.375a4.578,4.578,0,0,1-2.156-4.312c0-3.6.707-4.318,3.592-4.318s3.6.723,3.6,4.318a4.578,4.578,0,0,1-2.156,4.313v1.436l.07.769c.607.254,3.411,1.427,4.091,1.836a1.873,1.873,0,0,1,.615.942A9.963,9.963,0,0,1,11.687,21.543Zm7.1-3.177-.233-.351a2.584,2.584,0,0,0-.16-.246l-.045-.068-.006.007a1.391,1.391,0,0,0-.106-.137c-.486-.5-4.242-1.657-4.584-1.762a7.026,7.026,0,0,0,2.875-5.749c0-2.875-.875-5.75-5.023-5.751-3.967,0-5.041,2.878-5.041,5.753A7.1,7.1,0,0,0,9.4,15.819c-.216.065-4.117,1.229-4.634,1.755a1.886,1.886,0,0,0-.214.27l0-.006-.345.523A9.939,9.939,0,0,1,1.438,11.5a10.063,10.063,0,0,1,20.125,0A9.929,9.929,0,0,1,18.791,18.366Z" transform="translate(0 0.001)" fill="#bec4cd"/>
</svg>
